<svg class="svg-icon" style="width: 1em;height: 1em;vertical-align: middle;fill: currentColor;overflow: hidden;" viewBox="0 0 1024 1024" version="1.1" xmlns="http://www.w3.org/2000/svg"><path d="M921.6 478.72L725.333333 320.853333V213.333333a81.493333 81.493333 0 0 0-77.226666-85.333333H161.706667A81.493333 81.493333 0 0 0 85.333333 213.333333v426.666667a85.333333 85.333333 0 0 0 51.2 80.213333 128 128 0 1 0 238.933334 5.12h271.36a128 128 0 1 0 240.64 0h8.533333a42.666667 42.666667 0 0 0 42.666667-42.666666v-170.666667a42.666667 42.666667 0 0 0-17.066667-33.28zM853.333333 532.48V640h-128v-209.92zM298.666667 768a42.666667 42.666667 0 1 1-42.666667-42.666667 42.666667 42.666667 0 0 1 42.666667 42.666667z m512 0a42.666667 42.666667 0 1 1-42.666667-42.666667 42.666667 42.666667 0 0 1 42.666667 42.666667z"  /></svg>