<svg class="svg-icon" style="width: 1em; height: 1em;vertical-align: middle;fill: currentColor;overflow: hidden;" viewBox="0 0 1024 1024" version="1.1" xmlns="http://www.w3.org/2000/svg"><path d="M114.269533 514.888793c0-56.004525 10.964726-110.323665 32.588209-161.447019 20.890796-49.389874 50.801013-93.751221 88.900749-131.850957 38.099736-38.099736 82.461083-68.009953 131.849934-88.900749 51.124378-21.623483 105.442494-32.588209 161.447019-32.588209 85.196381 0 167.891801 26.199709 237.123582 74.460876l-99.870592 16.83134c-10.992355 1.852184-18.401092 12.265348-16.548908 23.25668 1.661849 9.856485 10.205433 16.83134 19.878746 16.83134 1.11438 0 2.243087-0.092098 3.377934-0.283456l146.635685-24.712845c10.992355-1.852184 18.400069-12.264325 16.548908-23.255657L813.435307 48.121997c-1.853208-10.990309-12.254092-18.398022-23.25668-16.548908-10.992355 1.852184-18.400069 12.264325-16.548908 23.255657l14.456247 85.791945c-75.733868-52.438303-166.029384-80.884169-259.030521-80.884169-61.436234 0-121.044844 12.037151-177.171142 35.776831-54.201459 22.925129-102.875019 55.740512-144.66889 97.534384-41.793872 41.793872-74.609255 90.467431-97.534384 144.66889-23.73968 56.126298-35.776831 115.735931-35.776831 177.171142 0 71.050196 15.921621 139.111315 47.323818 202.294332 3.527336 7.096628 10.667967 11.20418 18.088984 11.20418 3.01773 0 6.081509-0.678452 8.967232-2.114151 9.982352-4.959965 14.052041-17.073864 9.091052-27.056216C128.772852 641.667222 114.269533 579.649749 114.269533 514.888793z"  /><path d="M939.095261 314.071092c-4.958942-9.982352-17.071817-14.054087-27.056216-9.093099-9.982352 4.959965-14.053064 17.072841-9.093099 27.056216 28.599362 57.554834 43.100634 119.574353 43.100634 184.335309 0 56.003502-10.963703 110.321618-32.588209 161.443949-20.889773 49.389874-50.801013 93.750197-88.900749 131.849934-38.099736 38.098713-82.46006 68.009953-131.849934 88.899726-51.124378 21.623483-105.442494 32.588209-161.447019 32.588209-85.196381 0-167.889755-26.198685-237.121536-74.459852l99.867522-16.827247c10.991332-1.852184 18.401092-12.264325 16.548908-23.25668-1.852184-10.992355-12.261255-18.393929-23.255657-16.548908L240.665245 824.765353c-5.278213 0.890276-9.987468 3.840468-13.090133 8.200776-3.103688 4.361331-4.348028 9.776667-3.457752 15.055904l22.766516 135.113257c1.660826 9.857509 10.204409 16.833387 19.877723 16.832364 1.113357 0 2.24411-0.093121 3.377934-0.283456 10.991332-1.852184 18.401092-12.264325 16.548908-23.25668l-14.456247-85.797062c75.734892 52.438303 166.029384 80.884169 259.031545 80.884169 61.435211 0 121.044844-12.036128 177.171142-35.775808 54.201459-22.925129 102.876042-55.741535 144.66889-97.534384 41.793872-41.793872 74.610278-90.466408 97.535407-144.667867 23.73968-56.125275 35.775808-115.733884 35.775808-177.169095C986.41294 445.320345 970.492342 377.25718 939.095261 314.071092z"  /></svg>