<svg class="svg-icon" style="width: 1em; height: 1em;vertical-align: middle;fill: currentColor;overflow: hidden;" viewBox="0 0 1024 1024" version="1.1" xmlns="http://www.w3.org/2000/svg"><path d="M861.353984 499.652608c0.008192 188.055552-151.2448 339.05664-339.582976 339.007488-187.27936-0.043008-338.317312-151.564288-338.243584-339.32288 0.073728-187.838464 151.586816-338.642944 340.094976-338.505728 186.66496 0.139264 337.723392 151.683072 337.731584 338.82112zM522.756096 186.97216c-172.61568-0.2048-312.764416 139.08992-313.09824 311.187456-0.33792 174.112768 138.305536 313.823232 311.963648 314.363904 172.98432 0.540672 313.35424-138.971136 313.61024-311.697408 0.258048-173.862912-138.913792-313.647104-312.475648-313.853952z" fill="" /><path d="M536.752128 575.852544a1.028096 1.028096 0 0 1-0.321536 0.18432c-0.720896 0.270336-1.59744 0.077824-2.347008 0.043008a65.10592 65.10592 0 0 0-2.828288-0.094208l-5.90848-0.026624a983.92064 983.92064 0 0 0-11.532288 0.002048c-2.08896 0.014336-4.179968 0.04096-6.268928 0.083968-7.202816 0.151552-6.060032-4.876288-6.0416-9.17504 0.110592-25.380864 8.689664-47.335424 26.771456-65.343488 11.60192-11.552768 23.529472-22.786048 34.926592-34.535424 14.702592-15.157248 21.200896-32.843776 16.095232-54.171648-4.841472-20.230144-16.984064-32.724992-37.16096-37.617664-42.196992-10.22976-74.604544 12.722176-78.465024 55.599104-0.364544 4.042752-0.991232 8.060928-1.560576 12.589056-8.86784 13.912064-25.423872 12.120064-33.5872 0-3.127296-54.075392 32.770048-96.182272 82.20672-100.52608 21.491712-1.888256 42.153984-0.475136 61.925376 8.404992 55.558144 24.958976 54.882304 99.966976 23.894016 130.22208-10.246144 10.002432-20.606976 19.918848-31.399936 29.319168-3.571712 3.110912-6.950912 6.602752-10.110976 10.129408-3.080192 3.44064-5.900288 7.1168-8.310784 11.057152a61.97248 61.97248 0 0 0-5.752832 12.099584c-1.509376 4.364288-2.461696 8.896512-2.998272 13.479936-0.58368 5.009408-0.698368 10.059776-0.761856 15.097856-0.008192 0.595968 0.08192 1.286144-0.024576 1.869824-0.08192 0.509952-0.08192 1.001472-0.438272 1.308672zM519.911424 605.247488c16.074752 0.008192 26.533888 10.113024 26.517504 25.608192-0.016384 14.903296-11.364352 26.036224-26.624 26.116096-15.202304 0.075776-26.523648-11.083776-26.525696-26.148864-0.002048-15.210496 10.797056-25.57952 26.632192-25.575424z" fill="" /></svg>