<?xml version="1.0" encoding="utf-8"?>
<!-- Generator: Adobe Illustrator 16.0.0, SVG Export Plug-In . SVG Version: 6.00 Build 0)  -->
<!DOCTYPE svg PUBLIC "-//W3C//DTD SVG 1.1//EN" "http://www.w3.org/Graphics/SVG/1.1/DTD/svg11.dtd">
<svg version="1.1" id="Capa_1" xmlns="http://www.w3.org/2000/svg" xmlns:xlink="http://www.w3.org/1999/xlink" x="0px" y="0px"
	 width="20px" height="20px" viewBox="0 0 20 20" enable-background="new 0 0 20 20" xml:space="preserve">
<path fill="#FFC120" d="M0,8.125c0,1.163,0.798,2.133,1.875,2.412v8.213h-1.25C0.28,18.75,0,19.029,0,19.375S0.28,20,0.625,20
	h18.749C19.721,20,20,19.721,20,19.375s-0.279-0.625-0.626-0.625h-1.25v-8.213C19.201,10.258,20,9.288,20,8.125V7.5H0V8.125z
	 M12.499,10.625c1.382,0,2.5-1.119,2.5-2.5c0,1.163,0.799,2.133,1.876,2.412v8.213H7.5v-8.125c1.381,0,2.499-1.119,2.499-2.5
	C9.999,9.506,11.12,10.625,12.499,10.625z M6.875,10.537v8.213h-3.75v-8.213C4.201,10.258,5,9.288,5,8.125
	C5,9.288,5.798,10.258,6.875,10.537z M17.5,1.875h-15l-2.5,5h20L17.5,1.875z M5.28,3.264l-1.25,2.5
	c-0.056,0.11-0.166,0.174-0.28,0.174c-0.047,0-0.095-0.01-0.14-0.033C3.457,5.827,3.394,5.64,3.472,5.485l1.25-2.5
	C4.8,2.832,4.986,2.77,5.14,2.846C5.295,2.922,5.356,3.11,5.28,3.264z M7.78,3.264l-1.25,2.5c-0.056,0.11-0.166,0.174-0.28,0.174
	c-0.047,0-0.095-0.01-0.14-0.033C5.957,5.827,5.894,5.64,5.972,5.485l1.25-2.5C7.3,2.832,7.487,2.77,7.64,2.846
	C7.795,2.922,7.856,3.11,7.78,3.264z M10.313,5.625c0,0.173-0.14,0.313-0.313,0.313c-0.172,0-0.312-0.14-0.312-0.313v-2.5
	c0-0.174,0.14-0.313,0.312-0.313c0.174,0,0.313,0.139,0.313,0.313V5.625z M13.9,5.898c-0.049,0.026-0.101,0.039-0.15,0.039
	c-0.11,0-0.218-0.059-0.273-0.162l-1.367-2.5c-0.084-0.151-0.026-0.342,0.125-0.424c0.148-0.083,0.342-0.029,0.425,0.123l1.366,2.5
	C14.105,5.626,14.052,5.816,13.9,5.898z M16.389,5.904c-0.044,0.023-0.091,0.033-0.139,0.033c-0.115,0-0.225-0.063-0.279-0.174
	l-1.25-2.5c-0.078-0.153-0.014-0.342,0.141-0.419c0.15-0.076,0.342-0.015,0.42,0.141l1.25,2.5
	C16.605,5.64,16.545,5.827,16.389,5.904z M5.313,15.096v-1.441C5.129,13.545,5,13.354,5,13.125C5,12.779,5.28,12.5,5.625,12.5
	c0.347,0,0.625,0.279,0.625,0.625c0,0.229-0.129,0.42-0.313,0.529v1.439c0.184,0.11,0.313,0.301,0.313,0.53
	c0,0.347-0.278,0.625-0.625,0.625C5.28,16.25,5,15.971,5,15.625C5,15.396,5.129,15.205,5.313,15.096z M2.5,0.625
	C2.5,0.279,2.78,0,3.125,0h13.75C17.221,0,17.5,0.279,17.5,0.625S17.221,1.25,16.875,1.25H3.125C2.78,1.25,2.5,0.971,2.5,0.625z
	 M10.954,13.971l-0.442-0.441l1.769-1.768l0.441,0.441L10.954,13.971z M10.954,15.738l-0.442-0.441l3.535-3.535l0.442,0.441
	L10.954,15.738z M14.047,13.529l0.442,0.441l-1.769,1.768l-0.441-0.441L14.047,13.529z"/>
</svg>
