<svg id="Layer_1" data-name="Layer 1" xmlns="http://www.w3.org/2000/svg" width="200" height="120" viewBox="0 0 200 120"><defs><style>.cls-1{fill:#fff;opacity:0.02;}.cls-2,.cls-5{fill:#085ca8;}.cls-3,.cls-6{fill:#eb2227;}.cls-4{fill:#099dd9;}.cls-5,.cls-6{fill-rule:evenodd;}</style></defs><rect class="cls-1" width="200" height="120"/><path class="cls-2" d="M105.39,22.46,98.82,29l-.31.32-2.11,2.1L94.85,33l-2.07,2.11-.35.31-.91.92-.32.31h0l-3,3.09h0l-.36.32a11.83,11.83,0,0,1-3,2.28,9.44,9.44,0,0,1-1.68.77,12.63,12.63,0,0,1-4,.88,11.52,11.52,0,0,1-2.49,0,12.79,12.79,0,0,1-5.13-1.72,7.49,7.49,0,0,1-2-1.37h0l-.35-.38L57,28.5v-.28a3.74,3.74,0,0,1-.57-.74,4.42,4.42,0,0,1-.63-2.28,1.21,1.21,0,0,1,0-.38,2.72,2.72,0,0,1,0-.57V24h0a4.84,4.84,0,0,1,.85-1.58l.31-.35.21-.21L70,9.12h0l7.73-7.77A4.6,4.6,0,0,1,84,1.11Z" transform="translate(0 0)"/><path class="cls-3" d="M82.14,51.26a7.67,7.67,0,0,1-3-.66L76.7,48.14l-.6-.6h0l-1.16-1.12-5.69-5.76.39.38a8.32,8.32,0,0,0,2,1.37,13.38,13.38,0,0,0,5.13,1.72,14.79,14.79,0,0,0,2.49,0,13.52,13.52,0,0,0,4-.88,11.69,11.69,0,0,0,1.69-.77,14.27,14.27,0,0,0,3-2.28l.35-.32h0l3.06-3.05h0l.35-.32.91-.91.32-.35L95,33.17l1.58-1.54,2.07-2.11.32-.31L112.17,16l5.48-5.9h0l.32-.31a4.32,4.32,0,0,1,6,0l3,3h0a4.94,4.94,0,0,0-3.51,1.4L113.22,24h0L95.66,41.29h0L89,47.75h0l-.39.39a11.09,11.09,0,0,1-3,2.1,8.64,8.64,0,0,1-2,.67,5.62,5.62,0,0,1-1.16,0h-.32Z" transform="translate(0 0)"/><path class="cls-3" d="M143,34.79l-.31.32L128.4,49.65,113.22,64.93a17.5,17.5,0,0,1-1.51,1.33h-.21A13.83,13.83,0,0,1,93.94,65h0l-.35-.31L91,62.12l-7.31-7.06L81.3,52.63,81,52.28a5.92,5.92,0,0,0,1.19,0h.35a9,9,0,0,0,1.37-.17,9.42,9.42,0,0,0,2.25-.74A13.83,13.83,0,0,0,89.62,49l.46-.5,5.58-5.37h0l19.21-18.93h0l9.35-9.17a3.72,3.72,0,0,1,4.67-.42l2.21,2.21h0l12,12a1.21,1.21,0,0,1,.28.36,4.22,4.22,0,0,1-.31,5.69Z" transform="translate(0 0)"/><path class="cls-4" d="M96.65,18.84a.89.89,0,0,1-1.25,0l0,0A14.62,14.62,0,0,0,74.59,39.39L79,43.89h0a14,14,0,0,1-2.42,0l-3.16-3.16a16.34,16.34,0,1,1,23.22-23h0a.89.89,0,0,1,0,1.23Zm6.77,5.62-1.22,1.23L100,23.52a.88.88,0,0,1,1-1.41.77.77,0,0,1,.18.18Z" transform="translate(0 0)"/><path class="cls-4" d="M84.81,42.31h0l-1.62.77-6-6.11a11.14,11.14,0,0,1-1.3-14,.88.88,0,0,1,1.56.81.66.66,0,0,1-.12.17,9.42,9.42,0,0,0,1.09,12Zm15-14h0l-.91.91-.28.28-6.85-7a9.5,9.5,0,0,0-9.63-2.32.87.87,0,0,1-.95-.79.9.9,0,0,1,.46-.86A11.19,11.19,0,0,1,93,21.23Z" transform="translate(0 0)"/><path class="cls-4" d="M96.12,31.73,94.89,33l-6.81-6.85A4.29,4.29,0,0,0,81.88,32l.12.12,4.39,4.42a.91.91,0,0,1,0,1.23.84.84,0,0,1-1.19,0l0,0-4.43-4.42a6,6,0,0,1,8.57-8.5Z" transform="translate(0 0)"/><path class="cls-4" d="M92.47,35.39h0l-.92.91-.31.28-6.82-7a.88.88,0,0,1,1.06-1.41,1,1,0,0,1,.17.18Z" transform="translate(0 0)"/><path class="cls-4" d="M64.86,115.36a2.58,2.58,0,0,0,1.44-.31,1.72,1.72,0,0,0,.63-1.06.85.85,0,0,0,0-.73,2.14,2.14,0,0,0-.84-.74l-1.72-1.2a3.67,3.67,0,0,1-.92-.84,2,2,0,0,1-.35-.91,3.55,3.55,0,0,1,1.37-3.13,4.94,4.94,0,0,1,3-.77,6.37,6.37,0,0,1,1.44.17,2.62,2.62,0,0,1,1,.43.51.51,0,0,1,.24.17v.21l-.24,1.06q0,.38-.42.21a6.57,6.57,0,0,0-1.13-.32,9.84,9.84,0,0,0-1.33,0c-1.06,0-1.65.35-1.79,1.05a.66.66,0,0,0,0,.64,3.17,3.17,0,0,0,.84.7l1.47,1a4.57,4.57,0,0,1,1.06,1,2.79,2.79,0,0,1,.42,1A4.5,4.5,0,0,1,69,114a3.66,3.66,0,0,1-.7,1.54,4.39,4.39,0,0,1-1.51,1.2,6.8,6.8,0,0,1-4,.21,4.25,4.25,0,0,1-1-.39.45.45,0,0,1-.24-.21v-.21l.21-1c0-.21,0-.31.42-.21a8.22,8.22,0,0,0,2.6.46Zm8.6,0a6.72,6.72,0,0,0,2-.35c.25,0,.32,0,.28.25l-.21,1a.26.26,0,0,1,0,.21.45.45,0,0,1-.28,0,4.13,4.13,0,0,1-2,.46,3.7,3.7,0,0,1-1.72-.39,2,2,0,0,1-1-1.23,4.26,4.26,0,0,1,0-2.07l.29-1.4a5.46,5.46,0,0,1,.87-2.08,3.93,3.93,0,0,1,1.51-1.23,4.77,4.77,0,0,1,1.87-.38,3.46,3.46,0,0,1,1.86.42l.21.18a.74.74,0,0,1,0,.21l-.21,1a.27.27,0,0,1-.39.25l-.84-.25a3.78,3.78,0,0,0-1,0c-1,0-1.69.67-2,2l-.31,1.41a2,2,0,0,0,0,1.51,1.12,1.12,0,0,0,.94.63ZM81.4,110a9.58,9.58,0,0,0-2.49.39c-.25,0-.32,0-.28-.21l.21-.95a.26.26,0,0,1,0-.21.51.51,0,0,1,.28-.17,7.53,7.53,0,0,1,1.23-.36,7.92,7.92,0,0,1,1.54,0,3.55,3.55,0,0,1,1.58.32,1.7,1.7,0,0,1,.88,1,2.83,2.83,0,0,1,0,1.58l-1.12,5.17a.33.33,0,0,1,0,.24H83l-1.34.28a10.42,10.42,0,0,1-1.58,0,5.45,5.45,0,0,1-2-.28,1.58,1.58,0,0,1-1-.8,2.49,2.49,0,0,1,0-1.48h0a3.8,3.8,0,0,1,.42-1.12,2.71,2.71,0,0,1,.77-.81,4,4,0,0,1,1.23-.49,6.83,6.83,0,0,1,1.69,0h1.09v-1.62a1.47,1.47,0,0,0-1-.28Zm0,5.48.46-2.24h-1a2.7,2.7,0,0,0-1.06,0,1,1,0,0,0-.49.35,2.5,2.5,0,0,0-.28.73h0a1.09,1.09,0,0,0,0,.67.63.63,0,0,0,.38.32,3,3,0,0,0,1,0,5,5,0,0,0,1.09,0Zm10.54,1.2a.33.33,0,0,1,0,.24H90.29a.33.33,0,0,1,0-.24l1.09-5a4,4,0,0,0,0-1,.8.8,0,0,0-.39-.49,1.66,1.66,0,0,0-.88-.18,7.69,7.69,0,0,0-1.51.18l-1.37,6.46a.49.49,0,0,1,0,.24h-2.1a.25.25,0,0,1,0-.24L86.74,109s0-.24.35-.28l1.69-.35h1.65a3.12,3.12,0,0,1,2.46.77,3,3,0,0,1,.31,2.53l-1,5Zm10.54,0a.4.4,0,0,1-.36.28h-1.19a3.7,3.7,0,0,1-1.4-.21,1,1,0,0,1-.6-.7,3.84,3.84,0,0,1,0-1.51l1-4.78-1.19-.21c-.21,0-.28,0-.25-.28v-.71a.74.74,0,0,1,0-.21.36.36,0,0,1,.25,0H100l.28-1.23c0-.17,0-.28.38-.31l1.44-.25h0a.18.18,0,0,1,0,.25l-.31,1.54h1.51a.26.26,0,0,1,.21,0,.2.2,0,0,1,0,.21l-.18.92v.21h-1.75l-1,4.78a2.06,2.06,0,0,0,0,.7H102c.21,0,.32,0,.28.21l-.21,1Zm8.85-3.51a5.36,5.36,0,0,1-.81,2,4.39,4.39,0,0,1-3.62,1.83,3.57,3.57,0,0,1-1.86-.49,2.2,2.2,0,0,1-1-1.34,3.83,3.83,0,0,1,0-2l.25-1.23a4.81,4.81,0,0,1,.84-1.94,4.29,4.29,0,0,1,1.51-1.33,4.16,4.16,0,0,1,2.07-.49,2.91,2.91,0,0,1,1.86.49,2.08,2.08,0,0,1,.95,1.33,3.55,3.55,0,0,1,0,1.94Zm-2,0,.28-1.23a2.1,2.1,0,0,0,0-1.48,1.11,1.11,0,0,0-1.09-.56,1.73,1.73,0,0,0-1.34.56,2.84,2.84,0,0,0-.73,1.48l-.25,1.23a2.07,2.07,0,0,0,0,1.51,1.17,1.17,0,0,0,1.09.56,1.87,1.87,0,0,0,1.3-.56A2.73,2.73,0,0,0,109.33,113.12ZM125.41,109a3.89,3.89,0,0,1-1.79,2.74,6.33,6.33,0,0,1-3.51.84h-1.34l-.8,3.93a1,1,0,0,1,0,.25h-1.76a.23.23,0,0,1,0-.25L118.42,106a.44.44,0,0,1,0-.32,1.27,1.27,0,0,1,.39,0,19.09,19.09,0,0,1,3-.21,4.84,4.84,0,0,1,3,.81,2.45,2.45,0,0,1,.64,2.67h0Zm-2.11,0h0a1.32,1.32,0,0,0-.24-1.37,2.56,2.56,0,0,0-1.65-.43l-1.16.25-.77,3.51h1.33a4.69,4.69,0,0,0,1.34-.17,2.27,2.27,0,0,0,.87-.6,2.24,2.24,0,0,0,.42-1Zm5.41.77a8.8,8.8,0,0,0-2.49.39c-.21,0-.32,0-.28-.22l.21-.94a.37.37,0,0,1,0-.21.68.68,0,0,1,.32-.18,6.8,6.8,0,0,1,1.19-.35,6.7,6.7,0,0,1,1.55,0,3.46,3.46,0,0,1,1.61.31,1.56,1.56,0,0,1,.84,1,2.83,2.83,0,0,1,0,1.58l-.87,5.3a.53.53,0,0,1,0,.25h0l-1.37.28a10.42,10.42,0,0,1-1.58,0,6,6,0,0,1-2-.28,1.52,1.52,0,0,1-1-.81,2.31,2.31,0,0,1,0-1.47h0a4.06,4.06,0,0,1,.43-1.13,2.58,2.58,0,0,1,.8-.81,3.71,3.71,0,0,1,1.2-.49,8.24,8.24,0,0,1,1.72,0h1.05v-1.61a1.39,1.39,0,0,0-1-.29Zm0,5.48.5-2.25h-1.09a2.5,2.5,0,0,0-1,0,1,1,0,0,0-.53.35,2.38,2.38,0,0,0-.24.74h0a1,1,0,0,0,0,.67.57.57,0,0,0,.38.31,3,3,0,0,0,1,0,4,4,0,0,0,1.09,0Zm12.61-6.5h0l-4.42,8.85a7.24,7.24,0,0,1-.85,1.41,3.44,3.44,0,0,1-1.08.73,5.22,5.22,0,0,1-1.66.25h-1.54c-.21,0-.32,0-.28-.25l.21-1h0a.37.37,0,0,1,.21,0h2.28a1.85,1.85,0,0,0,.81-.91l.21-.46H135a1.35,1.35,0,0,1-.49,0,.84.84,0,0,1-.35-.35,2.26,2.26,0,0,1-.21-.81l-.49-7h0s0-.25.35-.25h1.51a.38.38,0,0,1,0,.21l.21,6.15v.35h0l3-6.53a.34.34,0,0,1,.35-.25h1.54Z" transform="translate(0 0)"/><path class="cls-5" d="M126.43,91.23l-7.94-11.34-.81-.74h7.8l5.31,8.57.42-.35,3.19-4.74a2.46,2.46,0,0,0-.35-3.46l-.07,0h7.34L132.79,91.2V100l1.51,1.79h-9.13l1.26-1.76V91.23ZM104.86,79.15a3.22,3.22,0,0,1,.92,1.93,3,3,0,0,1,0,1.34l-5.9,17.1a6.56,6.56,0,0,1-1.65,2.25h6.42a2.72,2.72,0,0,1-.91-1.54,3,3,0,0,1,0-1.27l1.3-4.07h7.52L113.72,98a5.44,5.44,0,0,1,.21,1,3,3,0,0,1-1.2,2.84h10.08a9.36,9.36,0,0,1-2.39-3l-7.37-19.74Zm6.43,12.79H106l2.6-7.38ZM84.46,79.15h11.2a6.15,6.15,0,0,1,6.15,6.15v.77a6.15,6.15,0,0,1-6.15,6H92.85a5.72,5.72,0,0,0,2.92-6c-.21-1.9-1.2-3.72-2.81-3.76h-.81V99.17a1.16,1.16,0,0,0,.21.77,11.6,11.6,0,0,0,1,1.37l.32.36H84.77a6.12,6.12,0,0,0,.39-.5,6.36,6.36,0,0,0,.67-1.16,2,2,0,0,0,0-.77v-18c0-.94-1-1.47-1.55-2.07Z" transform="translate(0 0)"/><path class="cls-6" d="M37.11,79.05h7L50,96,55,82a1.54,1.54,0,0,0,0-1.19c-.28-.6-.6-1.13-.88-1.69h5.27c-.32,1.12-.77,2.39-1.16,3.51l-6.81,19.78a11.46,11.46,0,0,1-5.52-2.64,9.91,9.91,0,0,1-2.21-4L38,80.7A10.49,10.49,0,0,0,37.18,79ZM65.21,87V99.1a1.18,1.18,0,0,0,.42,1L67,101.91H60.54l1.12-1.72A1.79,1.79,0,0,0,62.08,99V82.07l-1.86-3h7L78.1,93.41V82a1.66,1.66,0,0,0-.42-1.19c-.35-.57-.74-1.13-1.12-1.69h6.63l-1.4,1.79c-.28.39-.42.49-.42,1v20.61a9.37,9.37,0,0,1-7-3.51l-9.2-11.91Z" transform="translate(0 0)"/><path class="cls-6" d="M140.87,84.63a4.84,4.84,0,0,1,.77-2.77,5.23,5.23,0,0,1,2.11-2,7,7,0,0,1,3.23-.7,4.69,4.69,0,0,1,1.4,0,5.55,5.55,0,0,1,1.3.56,4.87,4.87,0,0,1,1.9,2,7.31,7.31,0,0,1,.56,1.4,7,7,0,0,1,0,1.59,5.9,5.9,0,0,1-.49,2.38,6,6,0,0,1-1.48,2.08l.81.77,1,.84a6.06,6.06,0,0,0,1.19.67,4.59,4.59,0,0,0,1.37.39,6.14,6.14,0,0,1-1.34.77,4.1,4.1,0,0,1-1.44.28,3.7,3.7,0,0,1-1.3-.28,6.29,6.29,0,0,1-1.22-.67l-1.13-.84-.88-.74H146.1a5.18,5.18,0,0,1-2.78-.81,5.74,5.74,0,0,1-2.45-3.58,7,7,0,0,1,0-1.58Zm3.12,0a4,4,0,0,0,0,1.09,5.49,5.49,0,0,0,.28,1,4,4,0,0,0,.95,1.58,2.12,2.12,0,0,0,1.55.6,1.83,1.83,0,0,0,1.72-.91,4.54,4.54,0,0,0,.56-2.39v-1.2a1.85,1.85,0,0,0-.21-1.12,7.13,7.13,0,0,0-.35-.91,2.23,2.23,0,0,0-1-1.16,2.28,2.28,0,0,0-1.41-.42,1.23,1.23,0,0,0-.66,0,2.1,2.1,0,0,0-.6.38,3.71,3.71,0,0,0-.74,1.2,6.24,6.24,0,0,0-.21,1.61v.53Zm12.47,0a2.24,2.24,0,0,0,.91-.35,2.07,2.07,0,0,0,.64-.74,1.77,1.77,0,0,0,0-.46,1.34,1.34,0,0,0,0-.49,2,2,0,0,0-.43-1.26,1.45,1.45,0,0,0-1.22-.49h0v3.79Zm0,.88V88.6a1.64,1.64,0,0,0,.7,1.54H152.7a1.6,1.6,0,0,0,.67-1.54V81.22a4,4,0,0,0,0-1.09,1.54,1.54,0,0,0-.56-.7h5.41a3.51,3.51,0,0,1,1.65.35,2.64,2.64,0,0,1,1.44,1.72,2.6,2.6,0,0,1,0,.88,2.85,2.85,0,0,1-.42,1.34A3.26,3.26,0,0,1,159.34,85l2.14,3.51a7,7,0,0,0,1.41,1.65h-2.81a1.61,1.61,0,0,1-1.69-1l-2-3.72Z" transform="translate(0 0)"/></svg>